<svg width="525" height="158" viewBox="0 0 525 158" fill="none" xmlns="http://www.w3.org/2000/svg">
<path d="M78.7277 0C37.2279 0 3.23061 31.999 0 72.6647L42.3426 90.1714C45.9304 87.7176 50.2647 86.28 54.9276 86.28C55.3455 86.28 55.7616 86.2943 56.1741 86.3175L75.0042 59.0243C75.0042 58.8939 75.0024 58.7671 75.0024 58.6386C75.0024 42.2105 88.3659 28.8451 104.796 28.8451C121.224 28.8451 134.587 42.2105 134.587 58.6386C134.587 75.0667 121.224 88.4338 104.796 88.4338C104.569 88.4338 104.344 88.4284 104.119 88.4231L77.2633 107.585C77.2776 107.934 77.2901 108.289 77.2901 108.643C77.2901 120.976 67.2589 131.005 54.9276 131.005C44.1035 131.005 35.0528 123.279 33.0026 113.048L2.72164 100.529C12.0974 133.689 42.5623 158 78.7277 158C122.36 158 157.729 122.629 157.729 79.0027C157.729 35.3689 122.358 0 78.7277 0Z" fill="#C5C3C0"/>
<path d="M49.4778 119.872L39.7734 115.863C41.4932 119.444 44.4685 122.442 48.4188 124.089C56.9587 127.646 66.8041 123.594 70.3634 115.047C72.0867 110.915 72.0974 106.352 70.3884 102.208C68.6829 98.0635 65.4648 94.8311 61.3269 93.106C57.2212 91.3969 52.8227 91.4594 48.9581 92.9185L58.9821 97.0634C65.2808 99.6887 68.2596 106.921 65.6344 113.22C63.0146 119.521 55.7765 122.499 49.4778 119.872Z" fill="#C5C3C0"/>
<path d="M124.635 58.6314C124.635 47.6858 115.731 38.7798 104.783 38.7798C93.8377 38.7798 84.9316 47.6858 84.9316 58.6314C84.9316 69.5786 93.8377 78.4811 104.783 78.4811C115.731 78.4793 124.635 69.5769 124.635 58.6314ZM89.9035 58.5974C89.9035 50.3611 96.5808 43.6855 104.817 43.6855C113.054 43.6855 119.731 50.3611 119.731 58.5974C119.731 66.8338 113.054 73.5093 104.817 73.5093C96.5808 73.5093 89.9035 66.832 89.9035 58.5974Z" fill="#C5C3C0"/>
<path d="M242.117 54.0556L236.823 63.3599C232.746 60.5115 227.221 58.797 222.397 58.797C216.884 58.797 213.473 61.0794 213.473 65.1672C213.473 70.1337 219.533 71.2891 228.539 74.5215C238.22 77.945 243.785 81.9685 243.785 90.8353C243.785 102.967 234.245 109.78 220.533 109.78C213.85 109.78 205.789 108.055 199.592 104.285L203.453 93.9695C208.487 96.6286 214.509 98.2055 219.877 98.2055C227.114 98.2055 230.553 95.5357 230.553 91.5889C230.553 87.0725 225.308 85.7152 216.841 82.9115C207.192 79.6898 200.506 75.4626 200.506 65.6494C200.506 54.5824 209.369 48.2266 222.122 48.2266C231.01 48.2266 238.154 51.0429 242.117 54.0556Z" fill="#C5C3C0"/>
<path d="M283.464 59.9279V108.751H271.001V59.9279H252.91V49.2378H301.501V59.9279H283.464Z" fill="#C5C3C0"/>
<path d="M327.808 59.8958V73.3058H351.659V83.9959H327.808V97.9631H355.481V108.751H315.348V49.2378H355.481V59.8958H327.808Z" fill="#C5C3C0"/>
<path d="M383.271 97.1952L379.331 108.751H366.266L388.58 49.2378H401.126L424.07 108.75H410.564L406.538 97.1934L383.271 97.1952ZM394.782 63.4336L386.655 87.2622H403.077L394.782 63.4336Z" fill="#C5C3C0"/>
<path d="M488.041 72.2414L471.754 107.017H464.721L448.699 72.5521V108.751H436.764V49.2378H448.672L468.673 92.1983L487.964 49.2378H499.976V108.751H488.043L488.041 72.2414Z" fill="#C5C3C0"/>
<path d="M524.089 56.7455C524.089 61.8602 520.256 65.048 515.858 65.048C511.443 65.048 507.602 61.8602 507.602 56.7455C507.602 51.6326 511.443 48.4663 515.858 48.4663C520.258 48.4663 524.089 51.6326 524.089 56.7455ZM508.986 56.7455C508.986 61.0244 512.068 63.7122 515.858 63.7122C519.633 63.7122 522.703 61.0244 522.703 56.7455C522.703 52.4541 519.633 49.8075 515.858 49.8075C512.079 49.8075 508.986 52.4863 508.986 56.7455ZM515.972 52.5148C518.106 52.5148 518.824 53.6435 518.824 54.8632C518.824 55.9812 518.161 56.7312 517.354 57.1134L519.267 60.6976H517.701L516.088 57.5206H514.425V60.6976H513.122V52.5148H515.972ZM514.438 56.3223H515.892C516.833 56.3223 517.388 55.7312 517.388 54.9883C517.388 54.2382 516.99 53.756 515.888 53.756H514.436V56.3223H514.438Z" fill="#C5C3C0"/>
</svg>
